<svg xmlns="http://www.w3.org/2000/svg" viewBox="60 80 660 560"><path d="M 398 88 L 412 84 L 428 82 L 444 84 L 458 90 L 470 99 L 479 111 L 484 125 L 485 140 L 481 154 L 473 167 L 461 177 L 447 184 L 432 187 L 416 186 L 401 181 L 388 172 L 378 160 L 372 146 L 370 131 L 372 116 L 378 102 L 387 91 Z M 480 154 L 492 158 L 505 160 L 518 159 L 530 155 L 540 148 L 547 138 L 550 127 L 548 116 L 542 106 L 533 98 L 522 93 L 510 91 L 498 92 L 487 97 L 479 105 L 475 115 L 474 126 L 477 137 L 483 147 Z M 370 131 L 358 138 L 348 148 L 342 160 L 340 174 L 342 188 L 348 201 L 358 212 L 370 220 L 384 225 L 399 226 L 414 224 L 427 218 L 438 208 L 445 196 L 448 183 L 446 170 L 440 158 L 430 148 L 418 141 L 405 138 L 392 138 Z M 340 174 L 325 178 L 312 185 L 301 195 L 294 208 L 291 222 L 292 237 L 297 251 L 306 263 L 318 272 L 332 278 L 347 280 L 362 278 L 376 272 L 387 263 L 395 251 L 399 237 L 398 222 L 393 208 L 384 196 L 372 187 L 358 181 Z M 291 222 L 278 228 L 267 237 L 259 249 L 255 263 L 255 278 L 259 292 L 267 305 L 278 315 L 292 321 L 307 323 L 322 321 L 335 315 L 345 305 L 351 292 L 353 278 L 350 263 L 343 250 L 332 240 L 319 233 L 305 229 Z M 255 278 L 242 282 L 230 289 L 220 299 L 213 312 L 210 326 L 211 341 L 216 355 L 225 367 L 237 376 L 251 381 L 266 382 L 281 379 L 294 372 L 304 362 L 310 349 L 312 335 L 309 321 L 302 308 L 291 298 L 278 291 Z M 210 326 L 196 330 L 183 337 L 172 347 L 164 360 L 160 374 L 160 389 L 164 403 L 172 416 L 183 426 L 196 432 L 211 435 L 226 434 L 240 429 L 252 420 L 260 408 L 264 394 L 263 380 L 258 366 L 248 354 L 235 345 L 222 339 Z M 160 389 L 148 392 L 137 398 L 128 407 L 122 418 L 120 430 L 122 442 L 128 453 L 137 462 L 148 468 L 161 470 L 174 468 L 185 462 L 194 453 L 199 442 L 200 430 L 197 418 L 190 407 L 180 399 L 168 394 Z M 120 430 L 108 434 L 97 441 L 89 451 L 85 463 L 85 476 L 89 488 L 97 498 L 108 505 L 121 508 L 134 507 L 146 502 L 155 493 L 160 482 L 161 470 L 157 458 L 149 448 L 138 441 L 126 437 Z M 85 476 L 100 490 L 118 502 L 138 511 L 160 517 L 183 520 L 207 519 L 230 515 L 252 507 L 272 496 L 289 482 L 302 466 L 311 448 L 315 429 L 314 410 L 308 392 L 297 376 L 282 362 L 264 351 L 244 344 L 222 340 L 200 340 L 178 344 L 158 352 L 140 363 L 125 377 L 113 393 L 105 411 L 101 430 L 101 449 L 105 468 L 113 485 L 124 500 L 138 511" fill="#dbeafe" stroke="#0B73B7" stroke-width="1.5" stroke-linejoin="round"/></svg>